<?xml version="1.0" encoding="UTF-8" standalone="no"?><svg xmlns="http://www.w3.org/2000/svg" xmlns:xlink="http://www.w3.org/1999/xlink" contentScriptType="application/ecmascript" contentStyleType="text/css" height="590px" preserveAspectRatio="none" style="width:2419px;height:590px;" version="1.1" viewBox="0 0 2419 590" width="2419px" zoomAndPan="magnify"><defs/><g><!--MD5=[2956fab36b9a30d3d6580ba2056a42f8]
cluster casestudy.cargo--><polygon fill="#E3F2FD" points="22,25,141,25,148,47.4883,1329,47.4883,1329,377,22,377,22,25" style="stroke: #000000; stroke-width: 1.5;"/><line style="stroke: #000000; stroke-width: 1.5;" x1="22" x2="148" y1="47.4883" y2="47.4883"/><text fill="#000000" font-family="sans-serif" font-size="14" font-weight="bold" lengthAdjust="spacingAndGlyphs" textLength="113" x="26" y="40.5352">casestudy.cargo</text><!--MD5=[d638d07625743b07c4fd400f2566d8f7]
cluster casestudy.location--><polygon fill="#E3F2FD" points="1999,24,2137,24,2144,46.4883,2397,46.4883,2397,261,1999,261,1999,24" style="stroke: #000000; stroke-width: 1.5;"/><line style="stroke: #000000; stroke-width: 1.5;" x1="1999" x2="2144" y1="46.4883" y2="46.4883"/><text fill="#000000" font-family="sans-serif" font-size="14" font-weight="bold" lengthAdjust="spacingAndGlyphs" textLength="132" x="2003" y="39.5352">casestudy.location</text><!--MD5=[57d14d9e31a7331828b6f07bcfa572b2]
cluster casestudy.customer--><polygon fill="#E3F2FD" points="1357,419,1504,419,1511,441.4883,1971,441.4883,1971,578,1357,578,1357,419" style="stroke: #000000; stroke-width: 1.5;"/><line style="stroke: #000000; stroke-width: 1.5;" x1="1357" x2="1511" y1="441.4883" y2="441.4883"/><text fill="#000000" font-family="sans-serif" font-size="14" font-weight="bold" lengthAdjust="spacingAndGlyphs" textLength="141" x="1361" y="434.5352">casestudy.customer</text><!--MD5=[dd41f14cd110588569f9ee627593b3af]
cluster casestudy.shared--><polygon fill="#E3F2FD" points="1421,126,1549,126,1556,148.4883,1600,148.4883,1600,380,1421,380,1421,126" style="stroke: #000000; stroke-width: 1.5;"/><line style="stroke: #000000; stroke-width: 1.5;" x1="1421" x2="1556" y1="148.4883" y2="148.4883"/><text fill="#000000" font-family="sans-serif" font-size="14" font-weight="bold" lengthAdjust="spacingAndGlyphs" textLength="122" x="1425" y="141.5352">casestudy.shared</text><!--MD5=[c6a26da10c2b9ad5f415bd52ce481536]
class casestudy.cargo.DeliveryHistory--><rect fill="#E3F2FD" height="91.9531" id="casestudy.cargo.DeliveryHistory" style="stroke: #64B5F6; stroke-width: 1.5;" width="169" x="38" y="133"/><ellipse cx="68.75" cy="154.4883" fill="#ADD1B2" rx="11" ry="11" style="stroke: #64B5F6; stroke-width: 1.0;"/><path d="M71.2231,160.6313 Q70.6421,160.9302 70.0029,161.0796 Q69.3638,161.229 68.6582,161.229 Q66.1514,161.229 64.8315,159.5771 Q63.5117,157.9253 63.5117,154.8042 Q63.5117,151.6748 64.8315,150.0229 Q66.1514,148.3711 68.6582,148.3711 Q69.3638,148.3711 70.0112,148.5205 Q70.6587,148.6699 71.2231,148.9688 L71.2231,151.6914 Q70.5923,151.1104 69.9988,150.8406 Q69.4053,150.5708 68.7744,150.5708 Q67.4297,150.5708 66.7449,151.6375 Q66.0601,152.7041 66.0601,154.8042 Q66.0601,156.896 66.7449,157.9626 Q67.4297,159.0293 68.7744,159.0293 Q69.4053,159.0293 69.9988,158.7595 Q70.5923,158.4897 71.2231,157.9087 Z "/><text fill="#589DF6" font-family="sans-serif" font-size="14" font-style="italic" lengthAdjust="spacingAndGlyphs" textLength="52" x="111.25" y="151.5352">«Entity»</text><text fill="#000000" font-family="sans-serif" font-size="14" lengthAdjust="spacingAndGlyphs" textLength="102" x="86.25" y="168.0234">DeliveryHistory</text><line style="stroke: #64B5F6; stroke-width: 1.5;" x1="39" x2="206" y1="175.9766" y2="175.9766"/><text fill="#000000" font-family="sans-serif" font-size="14" lengthAdjust="spacingAndGlyphs" textLength="58" x="44" y="193.5117">String id</text><text fill="#000000" font-family="sans-serif" font-size="14" lengthAdjust="spacingAndGlyphs" textLength="157" x="44" y="210">HandlingEvent[] events</text><line style="stroke: #64B5F6; stroke-width: 1.5;" x1="39" x2="206" y1="216.9531" y2="216.9531"/><!--MD5=[4e77e1f891ca1ddc1c99f86f2585691b]
class casestudy.cargo.HandlingEvent--><rect fill="#E3F2FD" height="124.9297" id="casestudy.cargo.HandlingEvent" style="stroke: #64B5F6; stroke-width: 1.5;" width="265" x="267" y="66.5"/><ellipse cx="345.75" cy="87.9883" fill="#ADD1B2" rx="11" ry="11" style="stroke: #64B5F6; stroke-width: 1.0;"/><path d="M348.2231,94.1313 Q347.6421,94.4302 347.0029,94.5796 Q346.3638,94.729 345.6582,94.729 Q343.1514,94.729 341.8315,93.0771 Q340.5117,91.4253 340.5117,88.3042 Q340.5117,85.1748 341.8315,83.5229 Q343.1514,81.8711 345.6582,81.8711 Q346.3638,81.8711 347.0112,82.0205 Q347.6587,82.1699 348.2231,82.4688 L348.2231,85.1914 Q347.5923,84.6104 346.9988,84.3406 Q346.4053,84.0708 345.7744,84.0708 Q344.4297,84.0708 343.7449,85.1375 Q343.0601,86.2041 343.0601,88.3042 Q343.0601,90.396 343.7449,91.4626 Q344.4297,92.5293 345.7744,92.5293 Q346.4053,92.5293 346.9988,92.2595 Q347.5923,91.9897 348.2231,91.4087 Z "/><text fill="#589DF6" font-family="sans-serif" font-size="14" font-style="italic" lengthAdjust="spacingAndGlyphs" textLength="52" x="389.75" y="85.0352">«Entity»</text><text fill="#000000" font-family="sans-serif" font-size="14" lengthAdjust="spacingAndGlyphs" textLength="99" x="366.25" y="101.5234">HandlingEvent</text><line style="stroke: #64B5F6; stroke-width: 1.5;" x1="268" x2="531" y1="109.4766" y2="109.4766"/><rect fill="none" height="6" style="stroke: #C82930; stroke-width: 1.0;" width="6" x="275" y="117.4766"/><text fill="#000000" font-family="sans-serif" font-size="14" lengthAdjust="spacingAndGlyphs" textLength="132" x="287" y="127.0117">Date completeTime</text><rect fill="none" height="6" style="stroke: #C82930; stroke-width: 1.0;" width="6" x="275" y="133.9648"/><text fill="#000000" font-family="sans-serif" font-size="14" lengthAdjust="spacingAndGlyphs" textLength="74" x="287" y="143.5">String type</text><ellipse cx="278" cy="153.4531" fill="none" rx="3" ry="3" style="stroke: #038048; stroke-width: 1.0;"/><text fill="#000000" font-family="sans-serif" font-size="14" lengthAdjust="spacingAndGlyphs" textLength="239" x="287" y="159.9883">CarrierMovement carrierMovement</text><rect fill="none" height="6" style="stroke: #C82930; stroke-width: 1.0;" width="6" x="275" y="166.9414"/><text fill="#000000" font-family="sans-serif" font-size="14" lengthAdjust="spacingAndGlyphs" textLength="95" x="287" y="176.4766">Cargo[] cargo</text><line style="stroke: #64B5F6; stroke-width: 1.5;" x1="268" x2="531" y1="183.4297" y2="183.4297"/><!--MD5=[85f4e38b97af5d74799b92aa3bce0f3f]
class casestudy.cargo.CargoRepository--><rect fill="#E3F2FD" height="91.9531" id="casestudy.cargo.CargoRepository" style="stroke: #64B5F6; stroke-width: 1.5;" width="263" x="268" y="264"/><ellipse cx="337.75" cy="285.4883" fill="#ADD1B2" rx="11" ry="11" style="stroke: #64B5F6; stroke-width: 1.0;"/><path d="M340.2231,291.6313 Q339.6421,291.9302 339.0029,292.0796 Q338.3638,292.229 337.6582,292.229 Q335.1514,292.229 333.8315,290.5771 Q332.5117,288.9253 332.5117,285.8042 Q332.5117,282.6748 333.8315,281.0229 Q335.1514,279.3711 337.6582,279.3711 Q338.3638,279.3711 339.0112,279.5205 Q339.6587,279.6699 340.2231,279.9688 L340.2231,282.6914 Q339.5923,282.1104 338.9988,281.8406 Q338.4053,281.5708 337.7744,281.5708 Q336.4297,281.5708 335.7449,282.6375 Q335.0601,283.7041 335.0601,285.8042 Q335.0601,287.896 335.7449,288.9626 Q336.4297,290.0293 337.7744,290.0293 Q338.4053,290.0293 338.9988,289.7595 Q339.5923,289.4897 340.2231,288.9087 Z "/><text fill="#589DF6" font-family="sans-serif" font-size="14" font-style="italic" lengthAdjust="spacingAndGlyphs" textLength="87" x="372.25" y="282.5352">«Repository»</text><text fill="#000000" font-family="sans-serif" font-size="14" lengthAdjust="spacingAndGlyphs" textLength="115" x="358.25" y="299.0234">CargoRepository</text><line style="stroke: #64B5F6; stroke-width: 1.5;" x1="269" x2="530" y1="306.9766" y2="306.9766"/><line style="stroke: #64B5F6; stroke-width: 1.5;" x1="269" x2="530" y1="314.9766" y2="314.9766"/><ellipse cx="279" cy="325.9766" fill="#84BE84" rx="3" ry="3" style="stroke: #038048; stroke-width: 1.0;"/><text fill="#000000" font-family="sans-serif" font-size="14" lengthAdjust="spacingAndGlyphs" textLength="224" x="288" y="332.5117">Cargo findByTackingID(String id)</text><ellipse cx="279" cy="342.4648" fill="#84BE84" rx="3" ry="3" style="stroke: #038048; stroke-width: 1.0;"/><text fill="#000000" font-family="sans-serif" font-size="14" lengthAdjust="spacingAndGlyphs" textLength="237" x="288" y="349">Cargo findByCustomerID(String id)</text><!--MD5=[296248f6519a9b50aa736cee35e0e609]
class casestudy.cargo.Cargo--><rect fill="#E3F2FD" height="157.9063" id="casestudy.cargo.Cargo" style="stroke: #64B5F6; stroke-width: 1.5;" width="311" x="592" y="203"/><ellipse cx="663.25" cy="224.4883" fill="#ADD1B2" rx="11" ry="11" style="stroke: #64B5F6; stroke-width: 1.0;"/><path d="M665.7231,230.6313 Q665.1421,230.9302 664.5029,231.0796 Q663.8638,231.229 663.1582,231.229 Q660.6514,231.229 659.3315,229.5771 Q658.0117,227.9253 658.0117,224.8042 Q658.0117,221.6748 659.3315,220.0229 Q660.6514,218.3711 663.1582,218.3711 Q663.8638,218.3711 664.5112,218.5205 Q665.1587,218.6699 665.7231,218.9688 L665.7231,221.6914 Q665.0923,221.1104 664.4988,220.8406 Q663.9053,220.5708 663.2744,220.5708 Q661.9297,220.5708 661.2449,221.6375 Q660.5601,222.7041 660.5601,224.8042 Q660.5601,226.896 661.2449,227.9626 Q661.9297,229.0293 663.2744,229.0293 Q663.9053,229.0293 664.4988,228.7595 Q665.0923,228.4897 665.7231,227.9087 Z "/><text fill="#589DF6" font-family="sans-serif" font-size="14" font-style="italic" lengthAdjust="spacingAndGlyphs" textLength="164" x="681.75" y="221.5352">«AggregateRoot, Entity»</text><text fill="#000000" font-family="sans-serif" font-size="14" lengthAdjust="spacingAndGlyphs" textLength="42" x="742.75" y="238.0234">Cargo</text><line style="stroke: #64B5F6; stroke-width: 1.5;" x1="593" x2="902" y1="245.9766" y2="245.9766"/><rect fill="none" height="6" style="stroke: #C82930; stroke-width: 1.0;" width="6" x="600" y="253.9766"/><text fill="#000000" font-family="sans-serif" font-size="14" lengthAdjust="spacingAndGlyphs" textLength="115" x="612" y="263.5117">String trackingID</text><rect fill="none" height="6" style="stroke: #C82930; stroke-width: 1.0;" width="6" x="600" y="270.4648"/><text fill="#000000" font-family="sans-serif" font-size="14" lengthAdjust="spacingAndGlyphs" textLength="152" x="612" y="280">Customer[] customers</text><ellipse cx="603" cy="289.9531" fill="none" rx="3" ry="3" style="stroke: #038048; stroke-width: 1.0;"/><text fill="#000000" font-family="sans-serif" font-size="14" lengthAdjust="spacingAndGlyphs" textLength="207" x="612" y="296.4883">DeliveryHistory deliveryHistory</text><rect fill="none" height="6" style="stroke: #C82930; stroke-width: 1.0;" width="6" x="600" y="303.4414"/><text fill="#000000" font-family="sans-serif" font-size="14" lengthAdjust="spacingAndGlyphs" textLength="285" x="612" y="312.9766">DeliverySpecification deliverySpecification</text><text fill="#000000" font-family="sans-serif" font-size="14" lengthAdjust="spacingAndGlyphs" textLength="231" x="612" y="329.4648">CustomerShared customerShared</text><line style="stroke: #64B5F6; stroke-width: 1.5;" x1="593" x2="902" y1="336.418" y2="336.418"/><ellipse cx="603" cy="347.418" fill="#84BE84" rx="3" ry="3" style="stroke: #038048; stroke-width: 1.0;"/><text fill="#000000" font-family="sans-serif" font-size="14" lengthAdjust="spacingAndGlyphs" textLength="97" x="612" y="353.9531">static void ss()</text><!--MD5=[649e644e8bc626fab61200720759132f]
class casestudy.cargo.DeliverySpecification--><rect fill="#E3F2FD" height="141.418" id="casestudy.cargo.DeliverySpecification" style="stroke: #64B5F6; stroke-width: 1.5;" width="350" x="963" y="60.5"/><ellipse cx="1063.25" cy="81.9883" fill="#ADD1B2" rx="11" ry="11" style="stroke: #64B5F6; stroke-width: 1.0;"/><path d="M1065.7231,88.1313 Q1065.1421,88.4302 1064.5029,88.5796 Q1063.8638,88.729 1063.1582,88.729 Q1060.6514,88.729 1059.3315,87.0771 Q1058.0117,85.4253 1058.0117,82.3042 Q1058.0117,79.1748 1059.3315,77.5229 Q1060.6514,75.8711 1063.1582,75.8711 Q1063.8638,75.8711 1064.5112,76.0205 Q1065.1587,76.1699 1065.7231,76.4688 L1065.7231,79.1914 Q1065.0923,78.6104 1064.4988,78.3406 Q1063.9053,78.0708 1063.2744,78.0708 Q1061.9297,78.0708 1061.2449,79.1375 Q1060.5601,80.2041 1060.5601,82.3042 Q1060.5601,84.396 1061.2449,85.4626 Q1061.9297,86.5293 1063.2744,86.5293 Q1063.9053,86.5293 1064.4988,86.2595 Q1065.0923,85.9897 1065.7231,85.4087 Z "/><text fill="#589DF6" font-family="sans-serif" font-size="14" font-style="italic" lengthAdjust="spacingAndGlyphs" textLength="101" x="1103.75" y="79.0352">«Specification»</text><text fill="#000000" font-family="sans-serif" font-size="14" lengthAdjust="spacingAndGlyphs" textLength="141" x="1083.75" y="95.5234">DeliverySpecification</text><line style="stroke: #64B5F6; stroke-width: 1.5;" x1="964" x2="1312" y1="103.4766" y2="103.4766"/><ellipse cx="974" cy="114.4766" fill="none" rx="3" ry="3" style="stroke: #038048; stroke-width: 1.0;"/><text fill="#000000" font-family="sans-serif" font-size="14" lengthAdjust="spacingAndGlyphs" textLength="112" x="983" y="121.0117">Date arrivalTime</text><text fill="#000000" font-family="sans-serif" font-size="14" lengthAdjust="spacingAndGlyphs" textLength="213" x="983" y="137.5">LocationShared locationShared</text><text fill="#000000" font-family="sans-serif" font-size="14" lengthAdjust="spacingAndGlyphs" textLength="213" x="983" y="153.9883">LocationService locationService</text><line style="stroke: #64B5F6; stroke-width: 1.5;" x1="964" x2="1312" y1="160.9414" y2="160.9414"/><text fill="#000000" font-family="sans-serif" font-size="14" lengthAdjust="spacingAndGlyphs" textLength="226" x="983" y="178.4766">@Comment(note = "destination")</text><ellipse cx="974" cy="188.4297" fill="#84BE84" rx="3" ry="3" style="stroke: #038048; stroke-width: 1.0;"/><text fill="#000000" font-family="sans-serif" font-size="14" lengthAdjust="spacingAndGlyphs" textLength="324" x="983" y="194.9648">boolean verify(LocationShared  locationShared)</text><!--MD5=[973b50fe968dc69908e2986089b67699]
class casestudy.cargo.CarrierMovement--><rect fill="#E3F2FD" height="108.4414" id="casestudy.cargo.CarrierMovement" style="stroke: #64B5F6; stroke-width: 1.5;" width="169" x="663" y="60"/><ellipse cx="686.1" cy="81.4883" fill="#ADD1B2" rx="11" ry="11" style="stroke: #64B5F6; stroke-width: 1.0;"/><path d="M688.5731,87.6313 Q687.9921,87.9302 687.3529,88.0796 Q686.7138,88.229 686.0082,88.229 Q683.5014,88.229 682.1815,86.5771 Q680.8617,84.9253 680.8617,81.8042 Q680.8617,78.6748 682.1815,77.0229 Q683.5014,75.3711 686.0082,75.3711 Q686.7138,75.3711 687.3612,75.5205 Q688.0087,75.6699 688.5731,75.9688 L688.5731,78.6914 Q687.9423,78.1104 687.3488,77.8406 Q686.7553,77.5708 686.1244,77.5708 Q684.7797,77.5708 684.0949,78.6375 Q683.4101,79.7041 683.4101,81.8042 Q683.4101,83.896 684.0949,84.9626 Q684.7797,86.0293 686.1244,86.0293 Q686.7553,86.0293 687.3488,85.7595 Q687.9423,85.4897 688.5731,84.9087 Z "/><text fill="#589DF6" font-family="sans-serif" font-size="14" font-style="italic" lengthAdjust="spacingAndGlyphs" textLength="52" x="735.4" y="78.5352">«Entity»</text><text fill="#000000" font-family="sans-serif" font-size="14" lengthAdjust="spacingAndGlyphs" textLength="119" x="701.9" y="95.0234">CarrierMovement</text><line style="stroke: #64B5F6; stroke-width: 1.5;" x1="664" x2="831" y1="102.9766" y2="102.9766"/><rect fill="none" height="6" style="stroke: #C82930; stroke-width: 1.0;" width="6" x="671" y="110.9766"/><text fill="#000000" font-family="sans-serif" font-size="14" lengthAdjust="spacingAndGlyphs" textLength="110" x="683" y="120.5117">long scheduleID</text><ellipse cx="674" cy="130.4648" fill="none" rx="3" ry="3" style="stroke: #038048; stroke-width: 1.0;"/><text fill="#000000" font-family="sans-serif" font-size="14" lengthAdjust="spacingAndGlyphs" textLength="124" x="683" y="137">LocationShared to</text><ellipse cx="674" cy="146.9531" fill="none" rx="3" ry="3" style="stroke: #038048; stroke-width: 1.0;"/><text fill="#000000" font-family="sans-serif" font-size="14" lengthAdjust="spacingAndGlyphs" textLength="143" x="683" y="153.4883">LocationShared from</text><line style="stroke: #64B5F6; stroke-width: 1.5;" x1="664" x2="831" y1="160.4414" y2="160.4414"/><!--MD5=[bd5451b743bcf531e7c6536eac8f1406]
class casestudy.location.LocationService--><rect fill="#E3F2FD" height="75.4648" id="casestudy.location.LocationService" style="stroke: #64B5F6; stroke-width: 1.5;" width="366" x="2015" y="59.5"/><ellipse cx="2138.25" cy="80.9883" fill="#ADD1B2" rx="11" ry="11" style="stroke: #64B5F6; stroke-width: 1.0;"/><path d="M2140.7231,87.1313 Q2140.1421,87.4302 2139.5029,87.5796 Q2138.8638,87.729 2138.1582,87.729 Q2135.6514,87.729 2134.3315,86.0771 Q2133.0117,84.4253 2133.0117,81.3042 Q2133.0117,78.1748 2134.3315,76.5229 Q2135.6514,74.8711 2138.1582,74.8711 Q2138.8638,74.8711 2139.5112,75.0205 Q2140.1587,75.1699 2140.7231,75.4688 L2140.7231,78.1914 Q2140.0923,77.6104 2139.4988,77.3406 Q2138.9053,77.0708 2138.2744,77.0708 Q2136.9297,77.0708 2136.2449,78.1375 Q2135.5601,79.2041 2135.5601,81.3042 Q2135.5601,83.396 2136.2449,84.4626 Q2136.9297,85.5293 2138.2744,85.5293 Q2138.9053,85.5293 2139.4988,85.2595 Q2140.0923,84.9897 2140.7231,84.4087 Z "/><text fill="#589DF6" font-family="sans-serif" font-size="14" font-style="italic" lengthAdjust="spacingAndGlyphs" textLength="115" x="2156.75" y="78.0352">«DomainService»</text><text fill="#000000" font-family="sans-serif" font-size="14" lengthAdjust="spacingAndGlyphs" textLength="106" x="2161.25" y="94.5234">LocationService</text><line style="stroke: #64B5F6; stroke-width: 1.5;" x1="2016" x2="2380" y1="102.4766" y2="102.4766"/><line style="stroke: #64B5F6; stroke-width: 1.5;" x1="2016" x2="2380" y1="110.4766" y2="110.4766"/><ellipse cx="2026" cy="121.4766" fill="#84BE84" rx="3" ry="3" style="stroke: #038048; stroke-width: 1.0;"/><text fill="#000000" font-family="sans-serif" font-size="14" lengthAdjust="spacingAndGlyphs" textLength="340" x="2035" y="128.0117">abstract void resolveByPortCode(String portCode)</text><!--MD5=[d024bf4eebb64fca7751636d5895a1ff]
class casestudy.location.Location--><rect fill="#E3F2FD" height="75.4648" id="casestudy.location.Location" style="stroke: #64B5F6; stroke-width: 1.5;" width="124" x="2136" y="169.5"/><ellipse cx="2151" cy="190.9883" fill="#ADD1B2" rx="11" ry="11" style="stroke: #64B5F6; stroke-width: 1.0;"/><path d="M2153.4731,197.1313 Q2152.8921,197.4302 2152.2529,197.5796 Q2151.6138,197.729 2150.9082,197.729 Q2148.4014,197.729 2147.0815,196.0771 Q2145.7617,194.4253 2145.7617,191.3042 Q2145.7617,188.1748 2147.0815,186.5229 Q2148.4014,184.8711 2150.9082,184.8711 Q2151.6138,184.8711 2152.2612,185.0205 Q2152.9087,185.1699 2153.4731,185.4688 L2153.4731,188.1914 Q2152.8423,187.6104 2152.2488,187.3406 Q2151.6553,187.0708 2151.0244,187.0708 Q2149.6797,187.0708 2148.9949,188.1375 Q2148.3101,189.2041 2148.3101,191.3042 Q2148.3101,193.396 2148.9949,194.4626 Q2149.6797,195.5293 2151.0244,195.5293 Q2151.6553,195.5293 2152.2488,195.2595 Q2152.8423,194.9897 2153.4731,194.4087 Z "/><text fill="#589DF6" font-family="sans-serif" font-size="14" font-style="italic" lengthAdjust="spacingAndGlyphs" textLength="96" x="2163" y="188.0352">«ValueObject»</text><text fill="#000000" font-family="sans-serif" font-size="14" lengthAdjust="spacingAndGlyphs" textLength="58" x="2182" y="204.5234">Location</text><line style="stroke: #64B5F6; stroke-width: 1.5;" x1="2137" x2="2259" y1="212.4766" y2="212.4766"/><text fill="#000000" font-family="sans-serif" font-size="14" lengthAdjust="spacingAndGlyphs" textLength="110" x="2142" y="230.0117">String portCode</text><line style="stroke: #64B5F6; stroke-width: 1.5;" x1="2137" x2="2259" y1="236.9648" y2="236.9648"/><!--MD5=[04c59ad7020da7740a2768c7df48f5c9]
class casestudy.customer.Customer--><rect fill="#E3F2FD" height="108.4414" id="casestudy.customer.Customer" style="stroke: #64B5F6; stroke-width: 1.5;" width="247" x="1708" y="454"/><ellipse cx="1793.75" cy="475.4883" fill="#ADD1B2" rx="11" ry="11" style="stroke: #64B5F6; stroke-width: 1.0;"/><path d="M1796.2231,481.6313 Q1795.6421,481.9302 1795.0029,482.0796 Q1794.3638,482.229 1793.6582,482.229 Q1791.1514,482.229 1789.8315,480.5771 Q1788.5117,478.9253 1788.5117,475.8042 Q1788.5117,472.6748 1789.8315,471.0229 Q1791.1514,469.3711 1793.6582,469.3711 Q1794.3638,469.3711 1795.0112,469.5205 Q1795.6587,469.6699 1796.2231,469.9688 L1796.2231,472.6914 Q1795.5923,472.1104 1794.9988,471.8406 Q1794.4053,471.5708 1793.7744,471.5708 Q1792.4297,471.5708 1791.7449,472.6375 Q1791.0601,473.7041 1791.0601,475.8042 Q1791.0601,477.896 1791.7449,478.9626 Q1792.4297,480.0293 1793.7744,480.0293 Q1794.4053,480.0293 1794.9988,479.7595 Q1795.5923,479.4897 1796.2231,478.9087 Z "/><text fill="#589DF6" font-family="sans-serif" font-size="14" font-style="italic" lengthAdjust="spacingAndGlyphs" textLength="52" x="1821.75" y="472.5352">«Entity»</text><text fill="#000000" font-family="sans-serif" font-size="14" lengthAdjust="spacingAndGlyphs" textLength="67" x="1814.25" y="489.0234">Customer</text><line style="stroke: #64B5F6; stroke-width: 1.5;" x1="1709" x2="1954" y1="496.9766" y2="496.9766"/><ellipse cx="1719" cy="507.9766" fill="none" rx="3" ry="3" style="stroke: #038048; stroke-width: 1.0;"/><text fill="#000000" font-family="sans-serif" font-size="14" lengthAdjust="spacingAndGlyphs" textLength="83" x="1728" y="514.5117">String name</text><ellipse cx="1719" cy="524.4648" fill="none" rx="3" ry="3" style="stroke: #038048; stroke-width: 1.0;"/><text fill="#000000" font-family="sans-serif" font-size="14" lengthAdjust="spacingAndGlyphs" textLength="123" x="1728" y="531">String customerID</text><line style="stroke: #64B5F6; stroke-width: 1.5;" x1="1709" x2="1954" y1="537.9531" y2="537.9531"/><ellipse cx="1719" cy="548.9531" fill="#84BE84" rx="3" ry="3" style="stroke: #038048; stroke-width: 1.0;"/><text fill="#000000" font-family="sans-serif" font-size="14" lengthAdjust="spacingAndGlyphs" textLength="221" x="1728" y="555.4883">void getName(Location location)</text><!--MD5=[b3b5ade89c1a098287dc28f9fd8feff9]
class casestudy.customer.CustomerRepository--><rect fill="#E3F2FD" height="91.9531" id="casestudy.customer.CustomerRepository" style="stroke: #64B5F6; stroke-width: 1.5;" width="275" x="1373" y="470"/><ellipse cx="1436.25" cy="491.4883" fill="#B4A7E5" rx="11" ry="11" style="stroke: #64B5F6; stroke-width: 1.0;"/><path d="M1432.6777,487.7534 L1432.6777,485.5952 L1440.0571,485.5952 L1440.0571,487.7534 L1437.5918,487.7534 L1437.5918,495.8301 L1440.0571,495.8301 L1440.0571,497.9883 L1432.6777,497.9883 L1432.6777,495.8301 L1435.1431,495.8301 L1435.1431,487.7534 Z "/><text fill="#589DF6" font-family="sans-serif" font-size="14" font-style="italic" lengthAdjust="spacingAndGlyphs" textLength="87" x="1483.25" y="488.5352">«Repository»</text><text fill="#000000" font-family="sans-serif" font-size="14" font-style="italic" lengthAdjust="spacingAndGlyphs" textLength="140" x="1456.75" y="505.0234">CustomerRepository</text><line style="stroke: #64B5F6; stroke-width: 1.5;" x1="1374" x2="1647" y1="512.9766" y2="512.9766"/><line style="stroke: #64B5F6; stroke-width: 1.5;" x1="1374" x2="1647" y1="520.9766" y2="520.9766"/><text fill="#000000" font-family="sans-serif" font-size="14" lengthAdjust="spacingAndGlyphs" textLength="245" x="1379" y="538.5117">Customer findByName(String name)</text><text fill="#000000" font-family="sans-serif" font-size="14" lengthAdjust="spacingAndGlyphs" textLength="263" x="1379" y="555">Customer findByCustomerID(String ID)</text><!--MD5=[9e9634a42f5eeeb4a9f54badd55d03b5]
class casestudy.shared.LocationShared--><rect fill="#E3F2FD" height="91.9531" id="casestudy.shared.LocationShared" style="stroke: #64B5F6; stroke-width: 1.5;" width="138" x="1441.5" y="161"/><ellipse cx="1456.5" cy="182.4883" fill="#ADD1B2" rx="11" ry="11" style="stroke: #64B5F6; stroke-width: 1.0;"/><path d="M1458.9731,188.6313 Q1458.3921,188.9302 1457.7529,189.0796 Q1457.1138,189.229 1456.4082,189.229 Q1453.9014,189.229 1452.5815,187.5771 Q1451.2617,185.9253 1451.2617,182.8042 Q1451.2617,179.6748 1452.5815,178.0229 Q1453.9014,176.3711 1456.4082,176.3711 Q1457.1138,176.3711 1457.7612,176.5205 Q1458.4087,176.6699 1458.9731,176.9688 L1458.9731,179.6914 Q1458.3423,179.1104 1457.7488,178.8406 Q1457.1553,178.5708 1456.5244,178.5708 Q1455.1797,178.5708 1454.4949,179.6375 Q1453.8101,180.7041 1453.8101,182.8042 Q1453.8101,184.896 1454.4949,185.9626 Q1455.1797,187.0293 1456.5244,187.0293 Q1457.1553,187.0293 1457.7488,186.7595 Q1458.3423,186.4897 1458.9731,185.9087 Z "/><text fill="#589DF6" font-family="sans-serif" font-size="14" font-style="italic" lengthAdjust="spacingAndGlyphs" textLength="96" x="1475.5" y="179.5352">«ValueObject»</text><text fill="#000000" font-family="sans-serif" font-size="14" lengthAdjust="spacingAndGlyphs" textLength="106" x="1470.5" y="196.0234">LocationShared</text><line style="stroke: #64B5F6; stroke-width: 1.5;" x1="1442.5" x2="1578.5" y1="203.9766" y2="203.9766"/><text fill="#000000" font-family="sans-serif" font-size="14" lengthAdjust="spacingAndGlyphs" textLength="110" x="1447.5" y="221.5117">String portCode</text><text fill="#000000" font-family="sans-serif" font-size="14" lengthAdjust="spacingAndGlyphs" textLength="117" x="1447.5" y="238">Location location</text><line style="stroke: #64B5F6; stroke-width: 1.5;" x1="1442.5" x2="1578.5" y1="244.9531" y2="244.9531"/><!--MD5=[a4a94a6a0bf39cc944dff8765602c59b]
class casestudy.shared.CustomerShared--><rect fill="#E3F2FD" height="75.4648" id="casestudy.shared.CustomerShared" style="stroke: #64B5F6; stroke-width: 1.5;" width="147" x="1437" y="288.5"/><ellipse cx="1452" cy="309.9883" fill="#ADD1B2" rx="11" ry="11" style="stroke: #64B5F6; stroke-width: 1.0;"/><path d="M1454.4731,316.1313 Q1453.8921,316.4302 1453.2529,316.5796 Q1452.6138,316.729 1451.9082,316.729 Q1449.4014,316.729 1448.0815,315.0771 Q1446.7617,313.4253 1446.7617,310.3042 Q1446.7617,307.1748 1448.0815,305.5229 Q1449.4014,303.8711 1451.9082,303.8711 Q1452.6138,303.8711 1453.2612,304.0205 Q1453.9087,304.1699 1454.4731,304.4688 L1454.4731,307.1914 Q1453.8423,306.6104 1453.2488,306.3406 Q1452.6553,306.0708 1452.0244,306.0708 Q1450.6797,306.0708 1449.9949,307.1375 Q1449.3101,308.2041 1449.3101,310.3042 Q1449.3101,312.396 1449.9949,313.4626 Q1450.6797,314.5293 1452.0244,314.5293 Q1452.6553,314.5293 1453.2488,314.2595 Q1453.8423,313.9897 1454.4731,313.4087 Z "/><text fill="#589DF6" font-family="sans-serif" font-size="14" font-style="italic" lengthAdjust="spacingAndGlyphs" textLength="96" x="1475.5" y="307.0352">«ValueObject»</text><text fill="#000000" font-family="sans-serif" font-size="14" lengthAdjust="spacingAndGlyphs" textLength="115" x="1466" y="323.5234">CustomerShared</text><line style="stroke: #64B5F6; stroke-width: 1.5;" x1="1438" x2="1583" y1="331.4766" y2="331.4766"/><text fill="#000000" font-family="sans-serif" font-size="14" lengthAdjust="spacingAndGlyphs" textLength="85" x="1443" y="349.0117">Customer ID</text><line style="stroke: #64B5F6; stroke-width: 1.5;" x1="1438" x2="1583" y1="355.9648" y2="355.9648"/><!--MD5=[23d3167f89ae19479a938e7e5573ba85]
link casestudy.cargo.DeliverySpecification to casestudy.location.LocationService--><path d="M1313.04,97.5 C1313.04,97.5 2009.69,97.5 2009.69,97.5 " fill="none" id="casestudy.cargo.DeliverySpecification-&gt;casestudy.location.LocationService" style="stroke: #808080; stroke-width: 1.0;"/><polygon fill="#808080" points="2014.69,97.5,2005.7015,93.4743,2009.69,97.4857,2005.6786,101.4743,2014.69,97.5" style="stroke: #808080; stroke-width: 1.0;"/><!--MD5=[07d935014dfa8d26e7473a95e0da2d8b]
link casestudy.cargo.DeliverySpecification to casestudy.shared.LocationShared--><path d="M1313.07,181.25 C1313.07,181.25 1436.37,181.25 1436.37,181.25 " fill="none" id="casestudy.cargo.DeliverySpecification-&gt;casestudy.shared.LocationShared" style="stroke: #808080; stroke-width: 1.0;"/><polygon fill="#808080" points="1441.37,181.25,1432.37,177.25,1436.37,181.25,1432.37,185.25,1441.37,181.25" style="stroke: #808080; stroke-width: 1.0;"/><!--MD5=[1ad2f55817a3379ffbb7ab87ad44fe4c]
link casestudy.shared.CustomerShared to casestudy.customer.Customer--><path d="M1511,363.85 C1511,403.27 1511,459.33 1511,459.33 C1511,459.33 1702.59,459.33 1702.59,459.33 " fill="none" id="casestudy.shared.CustomerShared-&gt;casestudy.customer.Customer" style="stroke: #808080; stroke-width: 1.0;"/><polygon fill="#808080" points="1707.59,459.33,1698.59,455.33,1702.59,459.33,1698.59,463.33,1707.59,459.33" style="stroke: #808080; stroke-width: 1.0;"/><!--MD5=[417f29b582ca9c942d755d1631204341]
link casestudy.cargo.DeliveryHistory to casestudy.cargo.HandlingEvent--><path d="M207.11,162.25 C207.11,162.25 261.93,162.25 261.93,162.25 " fill="none" id="casestudy.cargo.DeliveryHistory-&gt;casestudy.cargo.HandlingEvent" style="stroke: #808080; stroke-width: 1.0;"/><polygon fill="#808080" points="266.93,162.25,257.93,158.25,261.93,162.25,257.93,166.25,266.93,162.25" style="stroke: #808080; stroke-width: 1.0;"/><!--MD5=[7d3405807221eb2fd0e517a3afb858a1]
link casestudy.customer.Customer to casestudy.location.Location--><path d="M1955.07,508 C2061.47,508 2198,508 2198,508 C2198,508 2198,249.51 2198,249.51 " fill="none" id="casestudy.customer.Customer-&gt;casestudy.location.Location" style="stroke: #808080; stroke-width: 1.0;"/><polygon fill="#808080" points="2198,244.51,2194,253.51,2198,249.51,2202,253.51,2198,244.51" style="stroke: #808080; stroke-width: 1.0;"/><!--MD5=[d19a5b2d847307e119261a2418805366]
link casestudy.cargo.HandlingEvent to casestudy.cargo.Cargo--><path d="M532.09,179.75 C582.49,179.75 628,179.75 628,179.75 C628,179.75 628,197.95 628,197.95 " fill="none" id="casestudy.cargo.HandlingEvent-&gt;casestudy.cargo.Cargo" style="stroke: #808080; stroke-width: 1.0;"/><polygon fill="#808080" points="628,202.95,632,193.95,628,197.95,624,193.95,628,202.95" style="stroke: #808080; stroke-width: 1.0;"/><!--MD5=[d4992a06eb340cac9fe496f193225cbc]
link casestudy.cargo.HandlingEvent to casestudy.cargo.CarrierMovement--><path d="M532.06,117.25 C532.06,117.25 657.86,117.25 657.86,117.25 " fill="none" id="casestudy.cargo.HandlingEvent-&gt;casestudy.cargo.CarrierMovement" style="stroke: #808080; stroke-width: 1.0;"/><polygon fill="#808080" points="662.86,117.25,653.86,113.25,657.86,117.25,653.86,121.25,662.86,117.25" style="stroke: #808080; stroke-width: 1.0;"/><!--MD5=[498095fcd072cd36bce247bbc1255331]
link casestudy.cargo.CarrierMovement to casestudy.shared.LocationShared--><path d="M832.11,114.25 C881.03,114.25 933,114.25 933,114.25 C933,114.25 933,228 933,228 C933,228 1436.41,228 1436.41,228 " fill="none" id="casestudy.cargo.CarrierMovement-&gt;casestudy.shared.LocationShared" style="stroke: #808080; stroke-width: 1.0;"/><polygon fill="#808080" points="1441.41,228,1432.41,224,1436.41,228,1432.41,232,1441.41,228" style="stroke: #808080; stroke-width: 1.0;"/><!--MD5=[6c8023646423ff6990896230085a5a8f]
link casestudy.cargo.Cargo to casestudy.cargo.DeliveryHistory--><path d="M591.8,214 C591.8,214 212.24,214 212.24,214 " fill="none" id="casestudy.cargo.Cargo-&gt;casestudy.cargo.DeliveryHistory" style="stroke: #808080; stroke-width: 1.0;"/><polygon fill="#808080" points="207.24,214,216.24,218,212.24,214,216.24,210,207.24,214" style="stroke: #808080; stroke-width: 1.0;"/><!--MD5=[843e61e7587669aeb7ae373439be05c2]
link casestudy.cargo.Cargo to casestudy.shared.CustomerShared--><path d="M903.28,324.75 C903.28,324.75 1431.98,324.75 1431.98,324.75 " fill="none" id="casestudy.cargo.Cargo-&gt;casestudy.shared.CustomerShared" style="stroke: #808080; stroke-width: 1.0;"/><polygon fill="#808080" points="1436.98,324.75,1427.98,320.75,1431.98,324.75,1427.98,328.75,1436.98,324.75" style="stroke: #808080; stroke-width: 1.0;"/><!--MD5=[6c69f5fa5139c0256d9074de923904e0]
link casestudy.cargo.Cargo to casestudy.cargo.DeliverySpecification--><path d="M868,202.93 C868,198.91 868,196.5 868,196.5 C868,196.5 957.81,196.5 957.81,196.5 " fill="none" id="casestudy.cargo.Cargo-&gt;casestudy.cargo.DeliverySpecification" style="stroke: #808080; stroke-width: 1.0;"/><polygon fill="#808080" points="962.81,196.5,953.81,192.5,957.81,196.5,953.81,200.5,962.81,196.5" style="stroke: #808080; stroke-width: 1.0;"/><!--MD5=[4a6b1d58652b55b83f7c227ef673ce0f]
link casestudy.cargo.Cargo to casestudy.customer.Customer--><path d="M748,361.06 C748,410.43 748,464.67 748,464.67 C748,464.67 1702.74,464.67 1702.74,464.67 " fill="none" id="casestudy.cargo.Cargo-&gt;casestudy.customer.Customer" style="stroke: #808080; stroke-width: 1.0;"/><polygon fill="#808080" points="1707.74,464.67,1698.74,460.67,1702.74,464.67,1698.74,468.67,1707.74,464.67" style="stroke: #808080; stroke-width: 1.0;"/><!--MD5=[f51d2d2328257dc1ea2561bd7775722f]
link casestudy.shared.LocationShared to casestudy.location.Location--><path d="M1579.57,207 C1579.57,207 2130.97,207 2130.97,207 " fill="none" id="casestudy.shared.LocationShared-&gt;casestudy.location.Location" style="stroke: #808080; stroke-width: 1.0;"/><polygon fill="#808080" points="2135.97,207,2126.97,203,2130.97,207,2126.97,211,2135.97,207" style="stroke: #808080; stroke-width: 1.0;"/><!--MD5=[f7bd8901d453e7f074652ea545b490bb]
link casestudy.cargo.CargoRepository to casestudy.cargo.Cargo--><path d="M531.06,310 C531.06,310 586.77,310 586.77,310 " fill="none" id="casestudy.cargo.CargoRepository-&gt;casestudy.cargo.Cargo" style="stroke: #808080; stroke-width: 1.0;"/><polygon fill="#808080" points="591.77,310,582.77,306,586.77,310,582.77,314,591.77,310" style="stroke: #808080; stroke-width: 1.0;"/><!--MD5=[e860c445b1c6f0ed7c1c693ac3c9e54c]
link casestudy.customer.CustomerRepository to casestudy.customer.Customer--><path d="M1648.03,516 C1648.03,516 1702.94,516 1702.94,516 " fill="none" id="casestudy.customer.CustomerRepository-&gt;casestudy.customer.Customer" style="stroke: #808080; stroke-width: 1.0;"/><polygon fill="#808080" points="1707.94,516,1698.94,512,1702.94,516,1698.94,520,1707.94,516" style="stroke: #808080; stroke-width: 1.0;"/><!--MD5=[590c523e340d689424928b5f53c283e4]
@startuml
skinparam linetype ortho
skinparam Shadowing false
skinparam package {
backgroundColor #E3F2FD
}
skinparam Class {
    ClassBorderThickness 1
    ArrowColor Gray
    ActorBorderColor Gray
    BackgroundColor #E3F2FD
    BorderColor #64B5F6
    FontSize 14
    AttributeFontSize 14
    StereotypeFontColor #589DF6
    StereotypeFontSize 14
}
left to right direction
 class casestudy.cargo.DeliveryHistory<<Entity>> { 
String id
HandlingEvent[] events
}
 class casestudy.location.LocationService<<DomainService>> { 
+ abstract void resolveByPortCode(String portCode)
}
 class casestudy.location.Location<<ValueObject>> { 
String portCode
}
 class casestudy.cargo.HandlingEvent<<Entity>> { 
- Date completeTime
- String type
+ CarrierMovement carrierMovement
- Cargo[] cargo
}
 class casestudy.customer.Customer<<Entity>> { 
+ String name
+ String customerID
+ void getName(Location location)
}
 class casestudy.cargo.CargoRepository<<Repository>> { 
+ Cargo findByTackingID(String id) 
+ Cargo findByCustomerID(String id) 
}
 class casestudy.shared.LocationShared<<ValueObject>> { 
String portCode
Location location
}
 class casestudy.cargo.Cargo<<AggregateRoot, Entity>> { 
-  String trackingID
- Customer[] customers
+ DeliveryHistory deliveryHistory
- DeliverySpecification deliverySpecification
CustomerShared customerShared
+  static void ss()
}
 class casestudy.cargo.DeliverySpecification<<Specification>> { 
+  Date arrivalTime
@Comment(note = "destination")
    LocationShared locationShared
LocationService locationService
+  boolean verify(LocationShared  locationShared)
}
 class casestudy.shared.CustomerShared<<ValueObject>> { 
Customer ID
}
 class casestudy.cargo.CarrierMovement<<Entity>> { 
- long scheduleID
+ LocationShared to
+ LocationShared from
}
 interface casestudy.customer.CustomerRepository<<Repository>> { 
Customer findByName(String name)
Customer findByCustomerID(String ID)
}
casestudy.cargo.DeliverySpecification - -> casestudy.location.LocationService
casestudy.cargo.DeliverySpecification - -> casestudy.shared.LocationShared

casestudy.shared.CustomerShared - -> casestudy.customer.Customer

casestudy.cargo.DeliveryHistory - -> casestudy.cargo.HandlingEvent

casestudy.customer.Customer - -> casestudy.location.Location

casestudy.cargo.HandlingEvent - -> casestudy.cargo.Cargo
casestudy.cargo.HandlingEvent - -> casestudy.cargo.CarrierMovement

casestudy.cargo.CarrierMovement - -> casestudy.shared.LocationShared

casestudy.cargo.Cargo - -> casestudy.cargo.DeliveryHistory
casestudy.cargo.Cargo - -> casestudy.shared.CustomerShared
casestudy.cargo.Cargo - -> casestudy.cargo.DeliverySpecification
casestudy.cargo.Cargo - -> casestudy.customer.Customer

casestudy.shared.LocationShared - -> casestudy.location.Location

casestudy.cargo.CargoRepository - -> casestudy.cargo.Cargo

casestudy.customer.CustomerRepository - -> casestudy.customer.Customer


@enduml

PlantUML version 1.2020.01(Mon Feb 17 01:40:32 CST 2020)
(GPL source distribution)
Java Runtime: OpenJDK Runtime Environment
JVM: OpenJDK 64-Bit Server VM
Java Version: 11.0.2+9
Operating System: Mac OS X
Default Encoding: UTF-8
Language: zh
Country: CN
--></g></svg>